<?xml version="1.0" standalone="no"?><!DOCTYPE svg PUBLIC "-//W3C//DTD SVG 1.1//EN" "http://www.w3.org/Graphics/SVG/1.1/DTD/svg11.dtd"><svg t="1745244495892" class="icon" viewBox="0 0 1024 1024" version="1.1" xmlns="http://www.w3.org/2000/svg" p-id="5577" xmlns:xlink="http://www.w3.org/1999/xlink" width="256" height="256"><path d="M55.17084 511.893897a461.265973 461.265973 0 1 0 922.531947 0 461.265973 461.265973 0 1 0-922.531947 0z" fill="#ffffff" fill-opacity="0" p-id="5578"></path><path d="M510.934126 0c143.181847 0 265.088768 49.988076 365.624787 149.91624 48.116523 48.132519 84.699796 103.143397 109.685836 164.984646 24.970044 61.857245 37.495056 127.505586 37.495057 196.977015 0 70.079284-12.365051 135.743621-37.015171 196.961019-24.682113 61.233394-61.105424 115.33249-109.221947 162.249298-49.956084 49.348229-106.630565 87.147213-170.023444 113.348963-63.360886 26.20175-128.881258 39.302625-196.513126 39.302625S378.581696 1010.814889 316.724451 984.885074c-61.841249-25.881826-117.30002-63.360886-166.360318-112.405188-49.060298-49.044301-86.379396-104.359107-111.97329-165.912425C12.796948 645.014144 0 580.13362 0 511.877901c0-67.647864 12.940913-132.68835 38.838736-195.15345C64.736558 254.259351 102.37558 198.352687 151.723809 148.988462 249.220553 49.684149 368.951993 0 510.934126 0z m1.855557 92.329976c-116.996093 0-215.420615 40.838259-295.257571 122.482784-40.230404 40.838259-71.151028 86.683323-92.77787 137.567186A403.167832 403.167832 0 0 0 92.297984 511.893897c0 54.850916 10.797424 107.718306 32.456258 158.570176 21.642837 50.915855 52.547466 96.313026 92.77787 136.223507 40.214408 39.926476 85.595583 70.367215 136.20751 91.418193a410.334122 410.334122 0 0 0 159.050061 31.52848c54.83492 0 107.974245-10.637463 159.529948-31.976373 51.491718-21.354906 97.912645-52.099573 139.374754-92.31398 79.82096-77.997395 119.715444-175.798067 119.715444-293.434007 0-56.674481-10.365527-110.293691-31.080586-160.873626-20.683066-50.579935-50.867866-95.657183-90.442427-135.295728-82.316365-82.268376-181.31675-123.410563-297.097133-123.410563z m-6.414469 334.560197l-68.575643 35.655495c-7.326252-15.212371-16.300112-25.897823-26.953571-31.992369-10.669455-6.07855-20.571093-9.133821-29.72091-9.133821-45.685103 0-68.559646 30.152808-68.559647 90.490415 0 27.41746 5.790619 49.332233 17.35586 65.792307 11.581238 16.460074 28.649166 24.698109 51.203787 24.698108 29.864876 0 50.883863-14.636509 63.088951-43.877533l63.056959 31.992368c-13.404803 25.002036-31.992369 44.645351-55.762699 58.961936-23.738338 14.332581-49.956084 21.482876-78.60525 21.482876-45.701099 0-82.5883-13.996661-110.613615-42.053969-28.025315-28.025315-42.037973-67.024013-42.037973-116.980096 0-48.75637 14.172619-87.435144 42.501862-116.084311 28.329243-28.63317 64.128703-42.965751 107.414378-42.965751 63.392879-0.031992 108.774054 24.65012 136.207511 74.014345z m295.241575 0l-67.647864 35.655495c-7.310256-15.212371-16.316108-25.897823-26.969567-31.992369-10.685451-6.07855-20.907013-9.133821-30.616697-9.133821-45.701099 0-68.575643 30.152808-68.575642 90.490415 0 27.41746 5.806615 49.332233 17.371856 65.792307 11.565241 16.460074 28.617174 24.698109 51.203786 24.698108 29.832884 0 50.867866-14.636509 63.040963-43.877533l63.984738 31.992368c-13.996661 25.002036-32.904151 44.645351-56.642489 58.961936a147.692771 147.692771 0 0 1-77.693468 21.482876c-46.32495 0-83.324125-13.996661-111.029516-42.053969-27.769376-28.025315-41.622072-67.024013-41.622072-116.980096 0-48.75637 14.156623-87.435144 42.517858-116.084311 28.313246-28.63317 64.112707-42.965751 107.382386-42.965751 63.376883-0.031992 108.502119 24.65012 135.295728 74.014345z" p-id="5579" fill="#ffffff"></path></svg>